<?xml version="1.0" standalone="no"?><!DOCTYPE svg PUBLIC "-//W3C//DTD SVG 1.1//EN" "http://www.w3.org/Graphics/SVG/1.1/DTD/svg11.dtd"><svg t="1599887000889" class="icon" viewBox="0 0 1024 1024" version="1.1" xmlns="http://www.w3.org/2000/svg" p-id="1907" xmlns:xlink="http://www.w3.org/1999/xlink" width="200" height="200"><defs><style type="text/css"></style></defs><path d="M146.285714 0h555.885715c21.942857 0 36.571429 7.314286 51.2 21.942857l175.542857 175.542857c14.628571 14.628571 21.942857 29.257143 21.942857 51.2V950.857143c0 21.942857-7.314286 36.571429-21.942857 51.2s-29.257143 21.942857-51.2 21.942857H146.285714c-43.885714 0-73.142857-29.257143-73.142857-73.142857V73.142857c0-43.885714 29.257143-73.142857 73.142857-73.142857z m109.714286 292.571429c-21.942857 0-36.571429 14.628571-36.571429 36.571428s14.628571 36.571429 36.571429 36.571429h512c21.942857 0 36.571429-14.628571 36.571429-36.571429S789.942857 292.571429 768 292.571429h-512z m0 219.428571c-21.942857 0-36.571429 14.628571-36.571429 36.571429s14.628571 36.571429 36.571429 36.571428h512c21.942857 0 36.571429-14.628571 36.571429-36.571428S789.942857 512 768 512h-512z m0 219.428571c-21.942857 0-36.571429 14.628571-36.571429 36.571429s14.628571 36.571429 36.571429 36.571429h512c21.942857 0 36.571429-14.628571 36.571429-36.571429s-14.628571-36.571429-36.571429-36.571429h-512z" fill="#FFBB00" p-id="1908"></path></svg>